<svg version="1.1" id="Layer_1" xmlns="http://www.w3.org/2000/svg" xmlns:xlink="http://www.w3.org/1999/xlink" x="0px" y="0px"
	 width="100%" viewBox="0 0 1711 1920" enable-background="new 0 0 1711 1920" xml:space="preserve">
<path fill="#F9CF5F" opacity="1.000000" stroke="none" 
	d="
M993.000000,1921.000000 
	C950.645752,1921.000000 908.291565,1921.000000 865.156250,1920.727051 
	C847.616028,1919.720581 830.851074,1919.098999 814.099365,1918.222656 
	C796.196655,1917.286255 778.284851,1916.383545 760.416565,1914.966797 
	C738.939575,1913.263916 717.484924,1911.219727 696.057190,1908.973999 
	C679.080566,1907.194824 662.077454,1905.398560 645.232117,1902.698730 
	C619.528259,1898.579346 593.762451,1894.522217 568.365112,1888.894165 
	C534.005066,1881.280029 499.747894,1872.996338 465.853577,1863.540894 
	C429.311188,1853.346802 393.754608,1840.040527 359.159637,1824.375122 
	C345.237885,1818.071045 331.623566,1811.088013 317.874634,1803.944458 
	C318.096710,1801.327393 318.124268,1799.140869 318.558411,1797.038208 
	C326.037598,1760.812012 340.869232,1727.416016 357.729645,1694.761963 
	C363.704041,1683.191162 371.960785,1672.640869 373.578705,1659.024902 
	C374.515594,1651.140259 376.350922,1643.362549 378.104614,1635.367920 
	C396.666107,1628.946655 414.914978,1622.723145 433.138733,1616.427002 
	C440.428955,1613.908325 445.973541,1609.135864 450.872375,1603.203613 
	C481.644257,1565.940063 502.794495,1523.511230 517.820679,1477.913452 
	C537.575928,1417.965088 544.913818,1356.250610 543.374329,1293.272583 
	C542.144104,1242.945557 535.522095,1193.340942 523.975403,1144.430298 
	C518.013916,1119.177856 510.600861,1094.267944 504.013428,1068.872803 
	C513.348145,1051.843140 522.206360,1034.964844 531.801392,1018.516602 
	C536.953064,1009.685242 543.370422,1001.592285 549.596497,993.046265 
	C551.093567,992.625671 552.194458,992.165466 553.330688,992.049194 
	C563.389526,991.019348 573.539795,990.576050 583.501404,988.961792 
	C609.843567,984.693176 636.321594,980.903687 662.349609,975.136536 
	C706.170166,965.426941 748.347229,950.705566 787.883423,929.066895 
	C811.163452,916.325500 832.955994,901.449951 851.696533,882.566650 
	C859.386902,874.817688 866.004333,866.004028 873.567322,857.722412 
	C887.726807,859.147034 901.515442,859.951904 915.114136,862.011230 
	C951.311157,867.492676 984.771729,880.460144 1015.544250,900.312439 
	C1040.107300,916.158875 1061.075439,936.006775 1079.040283,958.909302 
	C1087.425415,969.598938 1094.480713,981.331604 1101.668945,992.689941 
	C1098.535156,992.805481 1095.870728,992.799500 1093.207153,992.843140 
	C1056.671387,993.441284 1026.492432,1008.508606 1001.656860,1034.418213 
	C972.988464,1064.326294 958.239685,1100.808350 955.253357,1141.773071 
	C951.740662,1189.955933 963.668457,1233.894043 994.644714,1271.778198 
	C1009.454895,1289.891235 1027.821289,1303.415405 1049.441772,1312.384521 
	C1051.701416,1313.321777 1055.080200,1314.141113 1056.902954,1313.135742 
	C1069.130249,1306.391602 1081.076782,1299.138428 1093.454590,1291.965576 
	C1095.714111,1290.902466 1097.663086,1289.978149 1099.548218,1288.938232 
	C1129.593994,1272.362915 1160.281372,1257.163330 1192.637939,1245.549805 
	C1201.708496,1242.294312 1210.810059,1239.124878 1220.287354,1235.901367 
	C1241.828247,1230.080444 1262.838867,1223.686890 1284.159912,1218.591187 
	C1327.545654,1208.221680 1371.448975,1201.430420 1416.266968,1202.955444 
	C1427.543579,1203.338989 1438.798950,1204.350708 1450.059692,1205.134155 
	C1450.090088,1205.136353 1450.058594,1206.027710 1449.590942,1206.574097 
	C1435.824341,1208.766357 1422.273804,1209.906860 1409.270752,1213.205688 
	C1377.947388,1221.152222 1349.990479,1235.618530 1328.840942,1260.751831 
	C1305.144897,1288.911499 1298.083740,1320.570557 1312.396118,1355.331299 
	C1322.215576,1379.180420 1340.125977,1396.185913 1361.801147,1409.406982 
	C1387.488647,1425.075562 1415.653320,1433.187256 1445.478882,1435.430176 
	C1486.657837,1438.527100 1526.058594,1431.897827 1561.843994,1410.479126 
	C1573.710083,1403.377075 1583.919922,1393.507812 1594.883423,1385.352539 
	C1591.154175,1444.712158 1572.606445,1497.121948 1527.752686,1538.241089 
	C1513.115479,1550.544800 1497.094727,1559.992554 1479.653076,1566.854614 
	C1449.256592,1578.813721 1417.422607,1583.748413 1384.957642,1583.783813 
	C1364.043091,1583.806519 1343.056763,1582.801025 1322.229858,1580.878540 
	C1300.099976,1578.835693 1278.057495,1575.562012 1256.093262,1572.089722 
	C1235.918945,1568.900269 1215.899536,1564.731445 1195.667725,1560.669189 
	C1195.072388,1556.837280 1193.017456,1555.521851 1189.559814,1554.878174 
	C1159.773438,1549.333740 1131.139771,1540.213135 1104.019531,1526.583862 
	C1089.258545,1519.166016 1075.339844,1510.451050 1062.355713,1499.400024 
	C1068.544067,1494.546387 1074.704590,1490.271973 1080.212769,1485.278076 
	C1091.536255,1475.011597 1102.615356,1464.466675 1113.515747,1453.752197 
	C1115.137695,1452.157959 1116.619141,1447.967407 1115.747314,1446.827759 
	C1114.188721,1444.790161 1110.837769,1443.345093 1108.143799,1443.182495 
	C1105.656738,1443.032471 1102.693726,1444.410522 1100.578369,1445.977051 
	C1097.531860,1448.233032 1095.108887,1451.316895 1092.340088,1453.964111 
	C1062.912231,1482.101318 1030.073608,1504.492065 990.022217,1514.790161 
	C988.650330,1515.142944 987.089172,1516.364258 986.428284,1517.611084 
	C982.772339,1524.507935 985.496277,1529.845581 993.252258,1528.973022 
	C1003.058044,1527.869995 1013.000977,1525.795410 1022.234558,1522.381470 
	C1032.437500,1518.609009 1041.904907,1512.847290 1051.618408,1507.989136 
	C1059.623901,1514.042969 1067.696045,1520.787476 1076.393799,1526.594849 
	C1096.034302,1539.708618 1115.370850,1553.530884 1139.475464,1557.768799 
	C1151.708862,1559.919556 1163.851440,1562.586548 1176.035400,1565.487549 
	C1176.006714,1571.281128 1176.252808,1576.626953 1175.872681,1581.927734 
	C1175.475464,1587.469971 1177.105469,1592.214600 1179.461670,1597.149658 
	C1192.143066,1623.711304 1205.133301,1650.150635 1216.885376,1677.125122 
	C1235.499146,1719.849121 1251.449585,1763.549683 1261.297607,1809.267944 
	C1265.295166,1827.826172 1267.694092,1846.547852 1267.888794,1865.540527 
	C1267.918335,1868.420166 1267.992676,1871.299316 1267.788086,1874.431641 
	C1263.868042,1875.759766 1260.169800,1876.724731 1256.550415,1877.927124 
	C1222.785400,1889.142578 1188.337402,1897.854492 1153.307739,1903.774170 
	C1123.928833,1908.738892 1094.323120,1912.595825 1064.691284,1915.755005 
	C1042.122559,1918.161011 1019.354492,1918.693237 996.678040,1920.106201 
	C995.438293,1920.183350 994.225403,1920.692139 993.000000,1921.000000 
M875.930054,1399.426147 
	C901.571777,1365.651611 914.778198,1327.215210 917.729187,1285.242188 
	C920.068665,1251.966431 915.950439,1219.401001 903.811401,1188.125122 
	C889.263794,1150.643677 866.765320,1119.353760 832.119812,1097.874634 
	C805.461060,1081.347046 776.420288,1074.396240 745.198608,1078.359863 
	C712.011230,1082.573120 684.174438,1097.953857 661.154602,1121.711304 
	C625.636353,1158.367432 608.783081,1203.323608 605.241882,1253.583862 
	C603.428223,1279.324219 605.815735,1304.822876 612.942261,1329.744751 
	C625.366760,1373.193726 647.748352,1409.948975 685.614929,1435.858765 
	C713.760925,1455.117432 744.979004,1463.420166 778.974426,1458.632935 
	C819.415527,1452.938232 850.598572,1431.525269 875.930054,1399.426147 
z"/>
<path fill="#D16729" opacity="1.000000" stroke="none" 
	d="
M1528.069458,1538.133301 
	C1572.606445,1497.121948 1591.154175,1444.712158 1594.981934,1385.025879 
	C1596.017944,1383.079712 1596.923462,1381.885132 1597.889526,1380.741943 
	C1627.501953,1345.699951 1628.643311,1299.958130 1599.815552,1264.459229 
	C1591.730957,1254.503784 1581.244873,1246.498535 1571.890991,1237.093506 
	C1571.618896,1204.127930 1571.367554,1171.666992 1570.994507,1139.207642 
	C1570.761230,1118.909302 1570.458130,1098.610596 1569.979736,1078.316895 
	C1569.447021,1055.719849 1568.758667,1033.125610 1567.987183,1010.535339 
	C1567.465820,995.269409 1566.762329,980.008301 1565.997925,964.752258 
	C1565.084595,946.523621 1564.110718,928.297058 1562.995483,910.079834 
	C1561.769287,890.052185 1560.379639,870.034180 1559.009277,850.015564 
	C1558.035400,835.789368 1557.246704,821.543030 1555.890747,807.352051 
	C1553.827271,785.754700 1551.405273,764.190735 1549.020142,742.625366 
	C1547.089966,725.173218 1545.025757,707.735596 1542.942139,690.300964 
	C1542.349365,685.341797 1541.480713,680.415649 1540.738525,675.474365 
	C1536.146118,681.669800 1532.844360,687.946960 1529.406372,694.148682 
	C1521.197021,708.957031 1513.435181,724.045898 1504.545044,738.436218 
	C1493.644653,756.080566 1482.382080,773.567749 1470.178223,790.323059 
	C1454.944580,811.237793 1439.244873,831.890625 1422.527954,851.624268 
	C1407.539062,869.318176 1391.477661,886.209900 1374.824097,902.356812 
	C1358.392700,918.288330 1340.726929,932.959656 1323.379517,947.925171 
	C1318.463745,952.166016 1312.766602,955.501221 1306.420532,959.959351 
	C1306.222046,956.872009 1305.949463,955.131653 1306.024658,953.406433 
	C1306.638550,939.310120 1307.433716,925.220886 1307.948853,911.121277 
	C1308.725464,889.864014 1309.956543,868.597595 1309.867920,847.339661 
	C1309.640015,792.577209 1311.562012,737.787659 1308.057861,683.055603 
	C1307.082031,667.814148 1306.704224,652.535034 1305.964966,637.277405 
	C1305.700195,631.811768 1305.301636,626.346008 1304.748535,620.902283 
	C1303.576904,609.369751 1302.337769,597.842957 1300.989258,586.329895 
	C1299.274170,571.687622 1297.948120,556.972717 1295.496216,542.450867 
	C1292.546387,524.978821 1288.908325,507.604462 1284.989624,490.319000 
	C1279.807739,467.462036 1273.076294,445.076172 1261.541626,424.460480 
	C1259.991577,421.690308 1257.775146,419.293060 1255.420166,416.120880 
	C1173.327393,531.881409 1091.867310,646.749817 1010.407227,761.618225 
	C1009.981567,761.458069 1009.555969,761.297913 1009.130371,761.137695 
	C1008.420654,755.622986 1007.595215,750.120178 1007.025513,744.591064 
	C1005.870544,733.381775 1004.921448,722.151245 1003.761536,710.942505 
	C1002.585510,699.577454 1001.231506,688.230957 1000.003662,676.871155 
	C998.828796,666.000916 997.736511,655.121887 996.570129,644.250732 
	C995.404053,633.382080 994.139587,622.523682 993.012756,611.651062 
	C991.834167,600.279114 990.841858,588.887695 989.634155,577.519043 
	C988.164795,563.686218 986.157288,549.898682 985.098022,536.036865 
	C983.430176,514.210449 982.979675,492.277771 980.852478,470.503540 
	C978.921753,450.741821 976.032715,431.024536 972.498047,411.480835 
	C967.764404,385.307831 961.405212,359.427856 951.588623,334.657715 
	C944.324646,316.328644 936.834839,297.920837 927.412476,280.657806 
	C915.547485,258.919434 900.516479,239.328644 881.560242,222.807953 
	C862.659729,206.335770 841.410217,194.749695 817.510437,187.662384 
	C814.795349,186.857254 813.636169,187.431366 812.963989,190.292679 
	C808.113220,210.939590 802.999268,231.524933 798.197266,252.182953 
	C793.501770,272.382446 789.113831,292.653259 784.524841,312.877777 
	C777.582947,343.471619 770.508484,374.035553 763.630859,404.643738 
	C757.192444,433.296722 750.869446,461.976135 744.619995,490.671021 
	C738.513916,518.707581 732.490234,546.762573 726.574402,574.839783 
	C722.847839,592.526489 719.446533,610.281555 715.779480,627.981079 
	C713.972473,636.703125 711.893616,645.368774 709.651123,653.893799 
	C695.863586,641.942200 682.932739,629.409790 668.717285,618.560730 
	C651.019043,605.053650 631.124634,595.411377 608.984131,590.589600 
	C608.798035,589.944458 608.726562,589.600464 608.542847,589.333984 
	C595.438965,570.334106 581.629333,551.775024 569.427612,532.212952 
	C559.090454,515.640137 550.043518,498.185883 541.456604,480.617798 
	C531.122009,459.474213 521.800415,437.832245 512.210144,416.330231 
	C509.476929,410.202087 507.334412,403.810486 504.535461,396.537933 
	C503.092224,398.695831 501.989288,399.784882 501.545074,401.096924 
	C497.659058,412.574646 493.117554,423.905029 490.276428,435.643646 
	C486.426300,451.551239 483.175354,467.682434 480.993622,483.896179 
	C478.013458,506.043365 474.836823,528.327576 474.359283,550.609009 
	C473.675720,582.504211 475.315521,614.451050 476.102051,646.372375 
	C476.164978,648.926025 477.304047,651.453125 477.934753,654.366577 
	C477.605804,655.667358 477.374725,656.637512 476.951080,657.514648 
	C469.918213,672.075012 465.904724,687.619324 465.313995,703.575806 
	C464.738678,719.116028 465.507233,734.830200 467.200897,750.302124 
	C469.943512,775.356812 477.890472,799.211670 486.548889,822.782959 
	C486.888916,823.708618 488.103149,824.313110 488.803406,825.398682 
	C488.920593,827.425232 488.777100,829.278625 489.428467,830.789307 
	C493.311035,839.793945 497.377167,848.719482 500.943481,857.741760 
	C490.431732,857.899231 480.275818,857.210083 470.305145,858.267578 
	C457.456940,859.630371 445.354462,863.974426 435.617249,872.969849 
	C423.691925,883.986572 420.015686,898.336304 419.561951,913.988892 
	C417.038788,913.599670 414.783478,913.554932 412.843475,912.750183 
	C402.142487,908.310791 391.349915,904.038513 380.904999,899.047180 
	C362.359436,890.184753 345.481842,878.644043 330.371063,864.743225 
	C315.668182,851.217590 302.593597,836.289612 291.513458,819.490112 
	C276.178680,796.239929 265.192505,771.141174 256.961731,744.692139 
	C255.388504,739.636780 253.861023,734.567078 252.312439,729.504028 
	C243.549561,747.357788 235.851517,765.141174 228.481247,783.059387 
	C222.511581,797.572449 216.534729,812.104797 211.274384,826.882446 
	C202.034821,852.838989 193.260147,878.962585 184.451294,905.070312 
	C179.833069,918.757996 175.117233,932.437866 171.222153,946.338867 
	C164.552917,970.140259 158.183151,994.036072 152.266693,1018.035034 
	C146.509644,1041.387329 141.079910,1064.837036 136.258713,1088.397827 
	C132.540573,1106.568115 129.962936,1124.972778 126.923920,1143.280762 
	C124.916740,1155.372803 122.596855,1167.430298 121.122932,1179.588867 
	C119.049911,1196.689453 117.472755,1213.855591 115.977684,1231.019287 
	C114.467552,1248.355713 112.430450,1265.711792 112.205009,1283.079834 
	C111.818398,1312.865845 112.142921,1342.685669 113.171631,1372.456665 
	C113.857491,1392.305542 115.601746,1412.181030 118.111649,1431.886719 
	C120.914146,1453.890015 124.828415,1475.767944 128.834198,1497.594849 
	C130.865555,1508.663330 133.890823,1519.576416 136.951767,1530.422852 
	C141.500107,1546.539917 145.790680,1562.783203 151.457001,1578.516968 
	C157.795197,1596.116089 165.329437,1613.300171 172.766861,1630.481567 
	C176.986252,1640.228882 181.657257,1649.830933 186.838654,1659.099365 
	C193.725006,1671.417358 200.923706,1683.599365 208.688873,1695.377808 
	C218.175262,1709.767334 227.853653,1724.094482 238.438904,1737.677246 
	C248.729080,1750.881714 260.282166,1763.101074 271.223236,1775.802490 
	C271.686279,1776.340210 271.568237,1777.378540 271.388306,1778.105835 
	C227.904846,1751.374146 188.412964,1720.188232 153.428482,1683.371094 
	C104.105202,1631.464111 67.234947,1571.784058 42.058884,1504.853394 
	C19.127159,1443.889282 7.016682,1380.640015 2.815587,1315.764893 
	C2.323729,1308.169312 1.610571,1300.587891 1.000002,1293.000000 
	C1.000000,1270.645752 1.000000,1248.291504 1.253585,1225.143433 
	C4.461363,1190.510620 6.278050,1156.525879 10.591528,1122.861084 
	C21.757919,1035.711914 43.019135,950.794434 69.872498,867.231018 
	C93.130730,794.855042 120.673294,724.121094 151.823181,654.792358 
	C179.347412,593.533081 209.168671,533.425476 242.740768,475.222870 
	C243.695862,473.567078 244.682281,471.929321 246.217026,469.329651 
	C247.057022,472.171326 247.602722,473.851349 248.050705,475.557037 
	C264.893829,539.687073 283.105377,603.403931 306.078339,665.657227 
	C317.906342,697.709229 330.597778,729.403625 347.701355,759.112671 
	C350.046844,763.186707 352.745270,767.057617 355.280273,771.022522 
	C356.462524,769.180725 356.694153,767.739624 356.759644,766.291016 
	C358.986816,717.017578 362.827301,667.880432 368.921570,618.923523 
	C377.763214,547.895630 390.852570,477.738647 412.177399,409.304962 
	C429.439758,353.908264 451.324432,300.555237 483.850128,252.112885 
	C500.180511,227.791138 518.513611,205.219940 542.493530,187.847778 
	C544.024414,186.738724 545.723816,185.862320 547.317139,184.894516 
	C549.582153,205.695694 551.303345,225.948929 554.073669,246.057632 
	C560.723450,294.326355 572.229675,341.255615 594.834045,384.859589 
	C608.314941,410.864441 625.181335,434.230194 648.706604,452.214386 
	C656.909119,458.484894 665.626770,463.878052 675.904968,467.260895 
	C676.327942,465.619446 676.696594,464.388214 676.960815,463.134949 
	C687.228027,414.425079 696.508179,365.482391 707.945251,317.048981 
	C732.799561,211.796219 763.753906,108.256454 798.171265,5.746056 
	C798.676636,4.240949 798.733704,2.585366 799.000000,1.000000 
	C800.388916,1.000000 801.777771,1.000000 803.789917,1.304871 
	C838.678040,11.404930 870.712036,26.006838 899.360535,47.299034 
	C967.798096,98.163452 1010.137573,166.691544 1029.702026,248.654160 
	C1049.416992,331.247223 1066.019897,414.583160 1083.998901,497.590912 
	C1084.880615,501.661926 1085.885254,505.706299 1087.145508,511.102753 
	C1149.912109,398.492371 1211.928345,287.228180 1274.514648,174.941406 
	C1278.899170,179.565384 1283.013062,183.382431 1286.519409,187.693542 
	C1300.344116,204.690918 1309.657471,224.242020 1317.644531,244.434738 
	C1335.327271,289.140411 1345.390015,335.826843 1352.831665,383.128448 
	C1364.949829,460.156006 1369.619263,537.808105 1370.312622,615.661926 
	C1370.765137,666.460876 1369.233398,717.277588 1368.606812,768.086487 
	C1368.594360,769.088379 1368.780884,770.092773 1368.874634,771.096069 
	C1369.271484,771.308411 1369.668335,771.520813 1370.065308,771.733154 
	C1371.080688,770.413940 1371.970093,768.970459 1373.130127,767.793884 
	C1394.015625,746.609558 1412.277832,723.252258 1429.655396,699.194397 
	C1474.945557,636.493835 1513.044800,569.496948 1547.888184,500.570282 
	C1552.586670,491.275848 1557.221802,481.949280 1562.282715,471.846100 
	C1563.755127,474.433380 1564.863403,476.078308 1565.677856,477.857727 
	C1577.111206,502.841400 1589.287109,527.520386 1599.762085,552.901001 
	C1632.384888,631.944946 1656.476807,713.666382 1674.527710,797.199829 
	C1686.217285,851.294556 1695.319214,905.830078 1701.003784,960.881287 
	C1704.168091,991.525940 1706.302856,1022.276917 1708.775024,1053.252197 
	C1708.793945,1054.675903 1708.939453,1055.827271 1709.061279,1057.442017 
	C1709.307251,1062.925903 1709.576660,1067.946411 1709.697998,1073.306641 
	C1709.744019,1076.086304 1709.938232,1078.526245 1710.101562,1081.435791 
	C1710.303345,1087.886475 1710.536011,1093.867676 1710.638794,1100.305054 
	C1710.670410,1120.395142 1710.787598,1140.029663 1711.034668,1159.662476 
	C1711.078125,1163.111816 1711.664429,1166.554321 1712.000000,1170.000000 
	C1712.000000,1193.687622 1712.000000,1217.375122 1711.564209,1241.489380 
	C1710.765381,1242.730347 1710.150757,1243.522461 1710.076172,1244.362427 
	C1708.397705,1263.259766 1707.341431,1282.230835 1705.050171,1301.052002 
	C1695.395630,1380.353516 1675.679810,1457.021484 1643.516357,1530.286621 
	C1603.792358,1620.774170 1547.744019,1699.265503 1470.994141,1762.124878 
	C1453.140625,1776.747070 1433.716064,1789.450928 1414.791016,1802.815552 
	C1417.031860,1798.405640 1419.551880,1794.249268 1421.951172,1790.024536 
	C1433.895630,1768.991699 1446.473511,1748.283813 1457.540894,1726.798218 
	C1468.164673,1706.174072 1477.835449,1684.999268 1486.804199,1663.596802 
	C1500.267822,1631.468262 1511.565552,1598.515137 1521.107910,1564.991943 
	C1523.639282,1556.099121 1525.760010,1547.089355 1528.069458,1538.133301 
z"/>
<path fill="#FFFFFF" opacity="1.000000" stroke="none" 
	d="
M798.531372,1.000000 
	C798.733704,2.585366 798.676636,4.240949 798.171265,5.746056 
	C763.753906,108.256454 732.799561,211.796219 707.945251,317.048981 
	C696.508179,365.482391 687.228027,414.425079 676.960815,463.134949 
	C676.696594,464.388214 676.327942,465.619446 675.904968,467.260895 
	C665.626770,463.878052 656.909119,458.484894 648.706604,452.214386 
	C625.181335,434.230194 608.314941,410.864441 594.834045,384.859589 
	C572.229675,341.255615 560.723450,294.326355 554.073669,246.057632 
	C551.303345,225.948929 549.582153,205.695694 547.317139,184.894516 
	C545.723816,185.862320 544.024414,186.738724 542.493530,187.847778 
	C518.513611,205.219940 500.180511,227.791138 483.850128,252.112885 
	C451.324432,300.555237 429.439758,353.908264 412.177399,409.304962 
	C390.852570,477.738647 377.763214,547.895630 368.921570,618.923523 
	C362.827301,667.880432 358.986816,717.017578 356.759644,766.291016 
	C356.694153,767.739624 356.462524,769.180725 355.280273,771.022522 
	C352.745270,767.057617 350.046844,763.186707 347.701355,759.112671 
	C330.597778,729.403625 317.906342,697.709229 306.078339,665.657227 
	C283.105377,603.403931 264.893829,539.687073 248.050705,475.557037 
	C247.602722,473.851349 247.057022,472.171326 246.217026,469.329651 
	C244.682281,471.929321 243.695862,473.567078 242.740768,475.222870 
	C209.168671,533.425476 179.347412,593.533081 151.823181,654.792358 
	C120.673294,724.121094 93.130730,794.855042 69.872498,867.231018 
	C43.019135,950.794434 21.757919,1035.711914 10.591528,1122.861084 
	C6.278050,1156.525879 4.461363,1190.510620 1.253585,1224.674805 
	C1.000000,817.088257 1.000000,409.176514 1.000000,1.000000 
	C266.687500,1.000000 532.375122,1.000000 798.531372,1.000000 
z"/>
<path fill="#FFFFFF" opacity="1.000000" stroke="none" 
	d="
M1709.846069,1072.966919 
	C1709.576660,1067.946411 1709.307251,1062.925903 1709.282959,1057.201904 
	C1709.319458,1055.325684 1709.110596,1054.152832 1708.901611,1052.979980 
	C1706.302856,1022.276917 1704.168091,991.525940 1701.003784,960.881287 
	C1695.319214,905.830078 1686.217285,851.294556 1674.527710,797.199829 
	C1656.476807,713.666382 1632.384888,631.944946 1599.762085,552.901001 
	C1589.287109,527.520386 1577.111206,502.841400 1565.677856,477.857727 
	C1564.863403,476.078308 1563.755127,474.433380 1562.282715,471.846100 
	C1557.221802,481.949280 1552.586670,491.275848 1547.888184,500.570282 
	C1513.044800,569.496948 1474.945557,636.493835 1429.655396,699.194397 
	C1412.277832,723.252258 1394.015625,746.609558 1373.130127,767.793884 
	C1371.970093,768.970459 1371.080688,770.413940 1370.065308,771.733154 
	C1369.668335,771.520813 1369.271484,771.308411 1368.874634,771.096069 
	C1368.780884,770.092773 1368.594360,769.088379 1368.606812,768.086487 
	C1369.233398,717.277588 1370.765137,666.460876 1370.312622,615.661926 
	C1369.619263,537.808105 1364.949829,460.156006 1352.831665,383.128448 
	C1345.390015,335.826843 1335.327271,289.140411 1317.644531,244.434738 
	C1309.657471,224.242020 1300.344116,204.690918 1286.519409,187.693542 
	C1283.013062,183.382431 1278.899170,179.565384 1274.514648,174.941406 
	C1211.928345,287.228180 1149.912109,398.492371 1087.145508,511.102753 
	C1085.885254,505.706299 1084.880615,501.661926 1083.998901,497.590912 
	C1066.019897,414.583160 1049.416992,331.247223 1029.702026,248.654160 
	C1010.137573,166.691544 967.798096,98.163452 899.360535,47.299034 
	C870.712036,26.006838 838.678040,11.404930 804.206604,1.304871 
	C1106.600708,1.000000 1409.201416,1.000000 1712.000000,1.000000 
	C1712.000000,367.020905 1712.000000,733.041809 1711.795288,1099.501221 
	C1711.318481,1099.891479 1711.044556,1099.861328 1710.768555,1099.848877 
	C1710.536011,1093.867676 1710.303345,1087.886475 1710.336670,1081.133789 
	C1710.350464,1077.897217 1710.098267,1075.432129 1709.846069,1072.966919 
z"/>
<path fill="#FFFFFE" opacity="1.000000" stroke="none" 
	d="
M1.000002,1293.468628 
	C1.610571,1300.587891 2.323729,1308.169312 2.815587,1315.764893 
	C7.016682,1380.640015 19.127159,1443.889282 42.058884,1504.853394 
	C67.234947,1571.784058 104.105202,1631.464111 153.428482,1683.371094 
	C188.412964,1720.188232 227.904846,1751.374146 271.600708,1778.375244 
	C277.497437,1782.005737 282.739105,1785.487793 288.225006,1788.529053 
	C298.028778,1793.964111 307.979828,1799.133545 317.869324,1804.413940 
	C331.623566,1811.088013 345.237885,1818.071045 359.159637,1824.375122 
	C393.754608,1840.040527 429.311188,1853.346802 465.853577,1863.540894 
	C499.747894,1872.996338 534.005066,1881.280029 568.365112,1888.894165 
	C593.762451,1894.522217 619.528259,1898.579346 645.232117,1902.698730 
	C662.077454,1905.398560 679.080566,1907.194824 696.057190,1908.973999 
	C717.484924,1911.219727 738.939575,1913.263916 760.416565,1914.966797 
	C778.284851,1916.383545 796.196655,1917.286255 814.099365,1918.222656 
	C830.851074,1919.098999 847.616028,1919.720581 864.687622,1920.727051 
	C577.084412,1921.000000 289.168854,1921.000000 1.000000,1921.000000 
	C1.000000,1711.979126 1.000000,1502.958252 1.000002,1293.468628 
z"/>
<path fill="#FFFFFE" opacity="1.000000" stroke="none" 
	d="
M1415.014526,1803.037598 
	C1433.716064,1789.450928 1453.140625,1776.747070 1470.994141,1762.124878 
	C1547.744019,1699.265503 1603.792358,1620.774170 1643.516357,1530.286621 
	C1675.679810,1457.021484 1695.395630,1380.353516 1705.050171,1301.052002 
	C1707.341431,1282.230835 1708.397705,1263.259766 1710.076172,1244.362427 
	C1710.150757,1243.522461 1710.765381,1242.730347 1711.564209,1241.958008 
	C1712.000000,1468.262573 1712.000000,1694.525024 1712.000000,1921.000000 
	C1472.645874,1921.000000 1233.291626,1921.000000 993.468628,1921.000000 
	C994.225403,1920.692139 995.438293,1920.183350 996.678040,1920.106201 
	C1019.354492,1918.693237 1042.122559,1918.161011 1064.691284,1915.755005 
	C1094.323120,1912.595825 1123.928833,1908.738892 1153.307739,1903.774170 
	C1188.337402,1897.854492 1222.785400,1889.142578 1256.550415,1877.927124 
	C1260.169800,1876.724731 1263.868042,1875.759766 1268.163574,1874.362061 
	C1276.742432,1871.168701 1284.726685,1868.401123 1292.625610,1865.408813 
	C1323.841064,1853.583984 1354.113281,1839.686523 1383.112305,1823.152710 
	C1394.022705,1816.932373 1404.396240,1809.770386 1415.014526,1803.037598 
z"/>
<path fill="#F6E0D1" opacity="1.000000" stroke="none" 
	d="
M1710.638794,1100.305054 
	C1711.044556,1099.861328 1711.318481,1099.891479 1711.795288,1099.969727 
	C1712.000000,1123.020874 1712.000000,1146.041870 1712.000000,1169.531372 
	C1711.664429,1166.554321 1711.078125,1163.111816 1711.034668,1159.662476 
	C1710.787598,1140.029663 1710.670410,1120.395142 1710.638794,1100.305054 
z"/>
<path fill="#DF7E2D" opacity="1.000000" stroke="none" 
	d="
M709.937805,654.059937 
	C711.893616,645.368774 713.972473,636.703125 715.779480,627.981079 
	C719.446533,610.281555 722.847839,592.526489 726.574402,574.839783 
	C732.490234,546.762573 738.513916,518.707581 744.619995,490.671021 
	C750.869446,461.976135 757.192444,433.296722 763.630859,404.643738 
	C770.508484,374.035553 777.582947,343.471619 784.524841,312.877777 
	C789.113831,292.653259 793.501770,272.382446 798.197266,252.182953 
	C802.999268,231.524933 808.113220,210.939590 812.963989,190.292679 
	C813.636169,187.431366 814.795349,186.857254 817.510437,187.662384 
	C841.410217,194.749695 862.659729,206.335770 881.560242,222.807953 
	C900.516479,239.328644 915.547485,258.919434 927.412476,280.657806 
	C936.834839,297.920837 944.324646,316.328644 951.588623,334.657715 
	C961.405212,359.427856 967.764404,385.307831 972.498047,411.480835 
	C976.032715,431.024536 978.921753,450.741821 980.852478,470.503540 
	C982.979675,492.277771 983.430176,514.210449 985.098022,536.036865 
	C986.157288,549.898682 988.164795,563.686218 989.634155,577.519043 
	C990.841858,588.887695 991.834167,600.279114 993.012756,611.651062 
	C994.139587,622.523682 995.404053,633.382080 996.570129,644.250732 
	C997.736511,655.121887 998.828796,666.000916 1000.003662,676.871155 
	C1001.231506,688.230957 1002.585510,699.577454 1003.761536,710.942505 
	C1004.921448,722.151245 1005.870544,733.381775 1007.025513,744.591064 
	C1007.595215,750.120178 1008.420654,755.622986 1009.130371,761.137695 
	C1009.555969,761.297913 1009.981567,761.458069 1010.407227,761.618225 
	C1091.867310,646.749817 1173.327393,531.881409 1255.420166,416.120880 
	C1257.775146,419.293060 1259.991577,421.690308 1261.541626,424.460480 
	C1273.076294,445.076172 1279.807739,467.462036 1284.989624,490.319000 
	C1288.908325,507.604462 1292.546387,524.978821 1295.496216,542.450867 
	C1297.948120,556.972717 1299.274170,571.687622 1300.989258,586.329895 
	C1302.337769,597.842957 1303.576904,609.369751 1304.748535,620.902283 
	C1305.301636,626.346008 1305.700195,631.811768 1305.964966,637.277405 
	C1306.704224,652.535034 1307.082031,667.814148 1308.057861,683.055603 
	C1311.562012,737.787659 1309.640015,792.577209 1309.867920,847.339661 
	C1309.956543,868.597595 1308.725464,889.864014 1307.948853,911.121277 
	C1307.433716,925.220886 1306.638550,939.310120 1306.024658,953.406433 
	C1305.949463,955.131653 1306.222046,956.872009 1306.420532,959.959351 
	C1312.766602,955.501221 1318.463745,952.166016 1323.379517,947.925171 
	C1340.726929,932.959656 1358.392700,918.288330 1374.824097,902.356812 
	C1391.477661,886.209900 1407.539062,869.318176 1422.527954,851.624268 
	C1439.244873,831.890625 1454.944580,811.237793 1470.178223,790.323059 
	C1482.382080,773.567749 1493.644653,756.080566 1504.545044,738.436218 
	C1513.435181,724.045898 1521.197021,708.957031 1529.406372,694.148682 
	C1532.844360,687.946960 1536.146118,681.669800 1540.738525,675.474365 
	C1541.480713,680.415649 1542.349365,685.341797 1542.942139,690.300964 
	C1545.025757,707.735596 1547.089966,725.173218 1549.020142,742.625366 
	C1551.405273,764.190735 1553.827271,785.754700 1555.890747,807.352051 
	C1557.246704,821.543030 1558.035400,835.789368 1559.009277,850.015564 
	C1560.379639,870.034180 1561.769287,890.052185 1562.995483,910.079834 
	C1564.110718,928.297058 1565.084595,946.523621 1565.997925,964.752258 
	C1566.762329,980.008301 1567.465820,995.269409 1567.987183,1010.535339 
	C1568.758667,1033.125610 1569.447021,1055.719849 1569.979736,1078.316895 
	C1570.458130,1098.610596 1570.761230,1118.909302 1570.994507,1139.207642 
	C1571.367554,1171.666992 1571.618896,1204.127930 1571.552734,1236.951904 
	C1545.847778,1220.571411 1517.931030,1210.824951 1487.846191,1207.722534 
	C1475.340576,1206.433105 1462.658081,1206.858276 1450.055908,1206.503784 
	C1450.058594,1206.027710 1450.090088,1205.136353 1450.059692,1205.134155 
	C1438.798950,1204.350708 1427.543579,1203.338989 1416.266968,1202.955444 
	C1371.448975,1201.430420 1327.545654,1208.221680 1284.159912,1218.591187 
	C1262.838867,1223.686890 1241.828247,1230.080444 1220.315186,1235.528809 
	C1222.081543,1229.780151 1224.444092,1224.468750 1226.299438,1218.985474 
	C1237.326782,1186.396362 1239.473877,1153.094482 1232.778076,1119.444092 
	C1229.856079,1104.758911 1227.001953,1089.744751 1217.501099,1077.170776 
	C1217.429199,1076.639526 1217.161743,1076.352905 1216.951172,1076.074097 
	C1217.008057,1076.081787 1216.994507,1076.195923 1217.204712,1075.843262 
	C1204.870117,1048.572388 1185.948730,1027.235229 1160.863647,1011.437500 
	C1142.941040,1000.150513 1123.172852,994.328064 1102.138794,992.591492 
	C1094.480713,981.331604 1087.425415,969.598938 1079.040283,958.909302 
	C1061.075439,936.006775 1040.107300,916.158875 1015.544250,900.312439 
	C984.771729,880.460144 951.311157,867.492676 915.114136,862.011230 
	C901.515442,859.951904 887.726807,859.147034 873.604980,857.411377 
	C878.093445,848.254456 883.458740,839.676147 887.815613,830.612976 
	C897.213928,811.062439 902.385193,790.485657 902.086304,768.571594 
	C901.824402,749.366516 897.186768,731.807129 884.838623,716.755310 
	C877.408630,707.698486 867.828491,702.469299 856.041077,702.047119 
	C838.677124,701.425049 826.750183,711.254089 816.311096,723.528320 
	C807.393250,734.013855 798.700256,744.690613 789.791504,755.184082 
	C788.959167,756.164429 787.289856,756.434204 785.710083,756.872192 
	C776.654785,743.830627 767.957642,730.909607 759.072327,718.119385 
	C757.871338,716.390564 755.724854,715.318604 754.150146,713.645874 
	C754.113403,712.302124 754.287292,710.993713 753.720825,710.246521 
	C742.939941,696.026978 732.114441,681.840637 721.198059,667.724854 
	C717.589111,663.058228 713.699280,658.608704 709.937805,654.059937 
z"/>
<path fill="#DF7E2D" opacity="1.000000" stroke="none" 
	d="
M317.874634,1803.944458 
	C307.979828,1799.133545 298.028778,1793.964111 288.225006,1788.529053 
	C282.739105,1785.487793 277.497437,1782.005737 271.933289,1778.452881 
	C271.568237,1777.378540 271.686279,1776.340210 271.223236,1775.802490 
	C260.282166,1763.101074 248.729080,1750.881714 238.438904,1737.677246 
	C227.853653,1724.094482 218.175262,1709.767334 208.688873,1695.377808 
	C200.923706,1683.599365 193.725006,1671.417358 186.838654,1659.099365 
	C181.657257,1649.830933 176.986252,1640.228882 172.766861,1630.481567 
	C165.329437,1613.300171 157.795197,1596.116089 151.457001,1578.516968 
	C145.790680,1562.783203 141.500107,1546.539917 136.951767,1530.422852 
	C133.890823,1519.576416 130.865555,1508.663330 128.834198,1497.594849 
	C124.828415,1475.767944 120.914146,1453.890015 118.111649,1431.886719 
	C115.601746,1412.181030 113.857491,1392.305542 113.171631,1372.456665 
	C112.142921,1342.685669 111.818398,1312.865845 112.205009,1283.079834 
	C112.430450,1265.711792 114.467552,1248.355713 115.977684,1231.019287 
	C117.472755,1213.855591 119.049911,1196.689453 121.122932,1179.588867 
	C122.596855,1167.430298 124.916740,1155.372803 126.923920,1143.280762 
	C129.962936,1124.972778 132.540573,1106.568115 136.258713,1088.397827 
	C141.079910,1064.837036 146.509644,1041.387329 152.266693,1018.035034 
	C158.183151,994.036072 164.552917,970.140259 171.222153,946.338867 
	C175.117233,932.437866 179.833069,918.757996 184.451294,905.070312 
	C193.260147,878.962585 202.034821,852.838989 211.274384,826.882446 
	C216.534729,812.104797 222.511581,797.572449 228.481247,783.059387 
	C235.851517,765.141174 243.549561,747.357788 252.312439,729.504028 
	C253.861023,734.567078 255.388504,739.636780 256.961731,744.692139 
	C265.192505,771.141174 276.178680,796.239929 291.513458,819.490112 
	C302.593597,836.289612 315.668182,851.217590 330.371063,864.743225 
	C345.481842,878.644043 362.359436,890.184753 380.904999,899.047180 
	C391.349915,904.038513 402.142487,908.310791 412.843475,912.750183 
	C414.783478,913.554932 417.038788,913.599670 419.575439,914.433777 
	C420.063477,925.214111 422.976562,934.694702 428.019318,943.718933 
	C436.190125,958.340881 446.250031,971.189819 461.579285,978.711914 
	C487.330627,991.348267 515.017517,993.580811 543.152954,992.934570 
	C545.171387,992.888184 547.195312,993.083313 549.216675,993.166138 
	C543.370422,1001.592285 536.953064,1009.685242 531.801392,1018.516602 
	C522.206360,1034.964844 513.348145,1051.843140 503.683411,1068.909424 
	C498.089752,1073.263916 492.850220,1077.079834 487.923950,1081.264526 
	C417.587891,1141.011475 354.733337,1207.543091 304.330231,1285.197998 
	C275.588715,1329.479004 252.548065,1376.434204 240.189285,1428.114624 
	C230.161880,1470.045898 228.798752,1512.162231 238.121689,1554.392090 
	C242.220993,1572.960815 249.138428,1590.403931 261.071594,1605.472778 
	C280.087891,1629.485962 305.885071,1639.506348 335.608551,1639.546509 
	C349.664490,1639.565552 363.723999,1636.955566 377.781891,1635.536621 
	C376.350922,1643.362549 374.515594,1651.140259 373.578705,1659.024902 
	C371.960785,1672.640869 363.704041,1683.191162 357.729645,1694.761963 
	C340.869232,1727.416016 326.037598,1760.812012 318.558411,1797.038208 
	C318.124268,1799.140869 318.096710,1801.327393 317.874634,1803.944458 
z"/>
<path fill="#261C12" opacity="1.000000" stroke="none" 
	d="
M378.104614,1635.367920 
	C363.723999,1636.955566 349.664490,1639.565552 335.608551,1639.546509 
	C305.885071,1639.506348 280.087891,1629.485962 261.071594,1605.472778 
	C249.138428,1590.403931 242.220993,1572.960815 238.121689,1554.392090 
	C228.798752,1512.162231 230.161880,1470.045898 240.189285,1428.114624 
	C252.548065,1376.434204 275.588715,1329.479004 304.330231,1285.197998 
	C354.733337,1207.543091 417.587891,1141.011475 487.923950,1081.264526 
	C492.850220,1077.079834 498.089752,1073.263916 503.513641,1069.239868 
	C510.600861,1094.267944 518.013916,1119.177856 523.975403,1144.430298 
	C535.522095,1193.340942 542.144104,1242.945557 543.374329,1293.272583 
	C544.913818,1356.250610 537.575928,1417.965088 517.820679,1477.913452 
	C502.794495,1523.511230 481.644257,1565.940063 450.872375,1603.203613 
	C445.973541,1609.135864 440.428955,1613.908325 433.138733,1616.427002 
	C414.914978,1622.723145 396.666107,1628.946655 378.104614,1635.367920 
z"/>
<path fill="#ECA229" opacity="1.000000" stroke="none" 
	d="
M549.596497,993.046265 
	C547.195312,993.083313 545.171387,992.888184 543.152954,992.934570 
	C515.017517,993.580811 487.330627,991.348267 461.579285,978.711914 
	C446.250031,971.189819 436.190125,958.340881 428.019318,943.718933 
	C422.976562,934.694702 420.063477,925.214111 419.988861,914.427368 
	C420.015686,898.336304 423.691925,883.986572 435.617249,872.969849 
	C445.354462,863.974426 457.456940,859.630371 470.305145,858.267578 
	C480.275818,857.210083 490.431732,857.899231 501.354248,857.811340 
	C533.989502,861.516174 565.817505,863.626587 597.827698,861.001953 
	C621.323059,859.075562 643.982971,854.315857 664.190125,841.504028 
	C692.704468,823.425171 721.157532,805.244324 749.409058,786.759033 
	C760.117676,779.752319 770.288696,771.903748 780.485352,764.150330 
	C782.794983,762.394165 784.192078,759.437866 786.009155,757.033936 
	C787.289856,756.434204 788.959167,756.164429 789.791504,755.184082 
	C798.700256,744.690613 807.393250,734.013855 816.311096,723.528320 
	C826.750183,711.254089 838.677124,701.425049 856.041077,702.047119 
	C867.828491,702.469299 877.408630,707.698486 884.838623,716.755310 
	C897.186768,731.807129 901.824402,749.366516 902.086304,768.571594 
	C902.385193,790.485657 897.213928,811.062439 887.815613,830.612976 
	C883.458740,839.676147 878.093445,848.254456 873.147583,857.363647 
	C866.004333,866.004028 859.386902,874.817688 851.696533,882.566650 
	C832.955994,901.449951 811.163452,916.325500 787.883423,929.066895 
	C748.347229,950.705566 706.170166,965.426941 662.349609,975.136536 
	C636.321594,980.903687 609.843567,984.693176 583.501404,988.961792 
	C573.539795,990.576050 563.389526,991.019348 553.330688,992.049194 
	C552.194458,992.165466 551.093567,992.625671 549.596497,993.046265 
z"/>
<path fill="#DF7E2D" opacity="1.000000" stroke="none" 
	d="
M1414.791016,1802.815552 
	C1404.396240,1809.770386 1394.022705,1816.932373 1383.112305,1823.152710 
	C1354.113281,1839.686523 1323.841064,1853.583984 1292.625610,1865.408813 
	C1284.726685,1868.401123 1276.742432,1871.168701 1268.421875,1874.109131 
	C1267.992676,1871.299316 1267.918335,1868.420166 1267.888794,1865.540527 
	C1267.694092,1846.547852 1265.295166,1827.826172 1261.297607,1809.267944 
	C1251.449585,1763.549683 1235.499146,1719.849121 1216.885376,1677.125122 
	C1205.133301,1650.150635 1192.143066,1623.711304 1179.461670,1597.149658 
	C1177.105469,1592.214600 1175.475464,1587.469971 1175.872681,1581.927734 
	C1176.252808,1576.626953 1176.006714,1571.281128 1176.497070,1565.439453 
	C1181.026367,1564.974365 1185.169434,1565.509155 1189.133667,1564.893311 
	C1191.504517,1564.524780 1193.595215,1562.354492 1195.811890,1560.994141 
	C1215.899536,1564.731445 1235.918945,1568.900269 1256.093262,1572.089722 
	C1278.057495,1575.562012 1300.099976,1578.835693 1322.229858,1580.878540 
	C1343.056763,1582.801025 1364.043091,1583.806519 1384.957642,1583.783813 
	C1417.422607,1583.748413 1449.256592,1578.813721 1479.653076,1566.854614 
	C1497.094727,1559.992554 1513.115479,1550.544800 1527.752686,1538.241089 
	C1525.760010,1547.089355 1523.639282,1556.099121 1521.107910,1564.991943 
	C1511.565552,1598.515137 1500.267822,1631.468262 1486.804199,1663.596802 
	C1477.835449,1684.999268 1468.164673,1706.174072 1457.540894,1726.798218 
	C1446.473511,1748.283813 1433.895630,1768.991699 1421.951172,1790.024536 
	C1419.551880,1794.249268 1417.031860,1798.405640 1414.791016,1802.815552 
z"/>
<path fill="#FDFEFE" opacity="1.000000" stroke="none" 
	d="
M875.702759,1399.701172 
	C850.598572,1431.525269 819.415527,1452.938232 778.974426,1458.632935 
	C744.979004,1463.420166 713.760925,1455.117432 685.614929,1435.858765 
	C647.748352,1409.948975 625.366760,1373.193726 612.942261,1329.744751 
	C605.815735,1304.822876 603.428223,1279.324219 605.241882,1253.583862 
	C608.783081,1203.323608 625.636353,1158.367432 661.154602,1121.711304 
	C684.174438,1097.953857 712.011230,1082.573120 745.198608,1078.359863 
	C776.420288,1074.396240 805.461060,1081.347046 832.119812,1097.874634 
	C866.765320,1119.353760 889.263794,1150.643677 903.811401,1188.125122 
	C915.950439,1219.401001 920.068665,1251.966431 917.729187,1285.242188 
	C914.778198,1327.215210 901.571777,1365.651611 875.702759,1399.701172 
M856.837708,1232.753784 
	C853.300476,1214.519653 846.402466,1197.724854 835.546143,1182.583862 
	C799.384155,1132.148926 734.253113,1130.902954 696.427124,1179.996094 
	C681.578796,1199.267334 673.511536,1221.281494 671.442749,1245.363525 
	C668.336060,1281.527100 676.464905,1314.644775 700.476318,1342.672974 
	C716.916260,1361.863159 737.672424,1373.457397 763.436707,1373.790405 
	C794.726562,1374.194824 818.326721,1359.246826 835.913330,1334.524536 
	C857.542786,1304.119019 862.923218,1269.954102 856.837708,1232.753784 
z"/>
<path fill="#271C12" opacity="1.000000" stroke="none" 
	d="
M1449.591064,1206.574097 
	C1462.658081,1206.858276 1475.340576,1206.433105 1487.846191,1207.722534 
	C1517.931030,1210.824951 1545.847778,1220.571411 1571.522095,1237.457275 
	C1581.244873,1246.498535 1591.730957,1254.503784 1599.815552,1264.459229 
	C1628.643311,1299.958130 1627.501953,1345.699951 1597.889526,1380.741943 
	C1596.923462,1381.885132 1596.017944,1383.079712 1594.985596,1384.576904 
	C1583.919922,1393.507812 1573.710083,1403.377075 1561.843994,1410.479126 
	C1526.058594,1431.897827 1486.657837,1438.527100 1445.478882,1435.430176 
	C1415.653320,1433.187256 1387.488647,1425.075562 1361.801147,1409.406982 
	C1340.125977,1396.185913 1322.215576,1379.180420 1312.396118,1355.331299 
	C1298.083740,1320.570557 1305.144897,1288.911499 1328.840942,1260.751831 
	C1349.990479,1235.618530 1377.947388,1221.152222 1409.270752,1213.205688 
	C1422.273804,1209.906860 1435.824341,1208.766357 1449.591064,1206.574097 
z"/>
<path fill="#FDFEFE" opacity="1.000000" stroke="none" 
	d="
M1101.668945,992.689941 
	C1123.172852,994.328064 1142.941040,1000.150513 1160.863647,1011.437500 
	C1185.948730,1027.235229 1204.870117,1048.572388 1216.860107,1075.784912 
	C1215.630005,1075.343628 1214.953491,1074.609253 1214.279541,1073.872559 
	C1189.947266,1047.274170 1156.435181,1040.367432 1125.374023,1055.669434 
	C1108.542603,1063.961182 1095.175049,1076.374634 1084.680176,1091.723755 
	C1058.441162,1130.098999 1049.934814,1172.633789 1056.644409,1218.262207 
	C1060.818115,1246.645630 1071.825928,1271.969238 1093.114258,1292.050293 
	C1081.076782,1299.138428 1069.130249,1306.391602 1056.902954,1313.135742 
	C1055.080200,1314.141113 1051.701416,1313.321777 1049.441772,1312.384521 
	C1027.821289,1303.415405 1009.454895,1289.891235 994.644714,1271.778198 
	C963.668457,1233.894043 951.740662,1189.955933 955.253357,1141.773071 
	C958.239685,1100.808350 972.988464,1064.326294 1001.656860,1034.418213 
	C1026.492432,1008.508606 1056.671387,993.441284 1093.207153,992.843140 
	C1095.870728,992.799500 1098.535156,992.805481 1101.668945,992.689941 
z"/>
<path fill="#271D13" opacity="1.000000" stroke="none" 
	d="
M1093.454590,1291.965454 
	C1071.825928,1271.969238 1060.818115,1246.645630 1056.644409,1218.262207 
	C1049.934814,1172.633789 1058.441162,1130.098999 1084.680176,1091.723755 
	C1095.175049,1076.374634 1108.542603,1063.961182 1125.374023,1055.669434 
	C1156.435181,1040.367432 1189.947266,1047.274170 1214.279541,1073.872559 
	C1214.953491,1074.609253 1215.630005,1075.343628 1216.649902,1076.137573 
	C1216.994507,1076.195923 1217.008057,1076.081787 1216.977539,1076.434570 
	C1217.066772,1076.996826 1217.186279,1077.206177 1217.305664,1077.415405 
	C1227.001953,1089.744751 1229.856079,1104.758911 1232.778076,1119.444092 
	C1239.473877,1153.094482 1237.326782,1186.396362 1226.299438,1218.985474 
	C1224.444092,1224.468750 1222.081543,1229.780151 1219.925293,1235.543457 
	C1210.810059,1239.124878 1201.708496,1242.294312 1192.637939,1245.549805 
	C1160.281372,1257.163330 1129.593994,1272.362915 1099.548218,1288.938232 
	C1097.663086,1289.978149 1095.714111,1290.902466 1093.454590,1291.965454 
z"/>
<path fill="#2B2013" opacity="1.000000" stroke="none" 
	d="
M1195.667725,1560.669189 
	C1193.595215,1562.354492 1191.504517,1564.524780 1189.133667,1564.893311 
	C1185.169434,1565.509155 1181.026367,1564.974365 1176.496826,1564.972046 
	C1163.851440,1562.586548 1151.708862,1559.919556 1139.475464,1557.768799 
	C1115.370850,1553.530884 1096.034302,1539.708618 1076.393799,1526.594849 
	C1067.696045,1520.787476 1059.623901,1514.042969 1051.618408,1507.989136 
	C1041.904907,1512.847290 1032.437500,1518.609009 1022.234558,1522.381470 
	C1013.000977,1525.795410 1003.058044,1527.869995 993.252258,1528.973022 
	C985.496277,1529.845581 982.772339,1524.507935 986.428284,1517.611084 
	C987.089172,1516.364258 988.650330,1515.142944 990.022217,1514.790161 
	C1030.073608,1504.492065 1062.912231,1482.101318 1092.340088,1453.964111 
	C1095.108887,1451.316895 1097.531860,1448.233032 1100.578369,1445.977051 
	C1102.693726,1444.410522 1105.656738,1443.032471 1108.143799,1443.182495 
	C1110.837769,1443.345093 1114.188721,1444.790161 1115.747314,1446.827759 
	C1116.619141,1447.967407 1115.137695,1452.157959 1113.515747,1453.752197 
	C1102.615356,1464.466675 1091.536255,1475.011597 1080.212769,1485.278076 
	C1074.704590,1490.271973 1068.544067,1494.546387 1062.355713,1499.400024 
	C1075.339844,1510.451050 1089.258545,1519.166016 1104.019531,1526.583862 
	C1131.139771,1540.213135 1159.773438,1549.333740 1189.559814,1554.878174 
	C1193.017456,1555.521851 1195.072388,1556.837280 1195.667725,1560.669189 
z"/>
<path fill="#ECA229" opacity="1.000000" stroke="none" 
	d="
M709.651123,653.893799 
	C713.699280,658.608704 717.589111,663.058228 721.198059,667.724854 
	C732.114441,681.840637 742.939941,696.026978 753.720825,710.246521 
	C754.287292,710.993713 754.113403,712.302124 753.722473,713.750793 
	C707.737671,715.718323 663.616638,723.938293 621.164917,740.366699 
	C571.363892,759.639343 526.865173,787.262634 488.910034,825.067261 
	C488.103149,824.313110 486.888916,823.708618 486.548889,822.782959 
	C477.890472,799.211670 469.943512,775.356812 467.200897,750.302124 
	C465.507233,734.830200 464.738678,719.116028 465.313995,703.575806 
	C465.904724,687.619324 469.918213,672.075012 476.951080,657.514648 
	C477.374725,656.637512 477.605804,655.667358 478.208740,654.166626 
	C485.362213,644.267395 491.416779,634.172180 499.304932,625.805786 
	C509.915771,614.551575 522.879089,606.002563 537.098022,599.597107 
	C560.177368,589.200134 584.136475,586.123657 609.046387,590.926941 
	C631.124634,595.411377 651.019043,605.053650 668.717285,618.560730 
	C682.932739,629.409790 695.863586,641.942200 709.651123,653.893799 
z"/>
<path fill="#271D12" opacity="1.000000" stroke="none" 
	d="
M488.803406,825.398682 
	C526.865173,787.262634 571.363892,759.639343 621.164917,740.366699 
	C663.616638,723.938293 707.737671,715.718323 753.588501,714.047424 
	C755.724854,715.318604 757.871338,716.390564 759.072327,718.119385 
	C767.957642,730.909607 776.654785,743.830627 785.710083,756.872192 
	C784.192078,759.437866 782.794983,762.394165 780.485352,764.150330 
	C770.288696,771.903748 760.117676,779.752319 749.409058,786.759033 
	C721.157532,805.244324 692.704468,823.425171 664.190125,841.504028 
	C643.982971,854.315857 621.323059,859.075562 597.827698,861.001953 
	C565.817505,863.626587 533.989502,861.516174 501.792419,857.741150 
	C497.377167,848.719482 493.311035,839.793945 489.428467,830.789307 
	C488.777100,829.278625 488.920593,827.425232 488.803406,825.398682 
z"/>
<path fill="#DF7E2D" opacity="1.000000" stroke="none" 
	d="
M608.984131,590.589600 
	C584.136475,586.123657 560.177368,589.200134 537.098022,599.597107 
	C522.879089,606.002563 509.915771,614.551575 499.304932,625.805786 
	C491.416779,634.172180 485.362213,644.267395 478.217010,653.792603 
	C477.304047,651.453125 476.164978,648.926025 476.102051,646.372375 
	C475.315521,614.451050 473.675720,582.504211 474.359283,550.609009 
	C474.836823,528.327576 478.013458,506.043365 480.993622,483.896179 
	C483.175354,467.682434 486.426300,451.551239 490.276428,435.643646 
	C493.117554,423.905029 497.659058,412.574646 501.545074,401.096924 
	C501.989288,399.784882 503.092224,398.695831 504.535461,396.537933 
	C507.334412,403.810486 509.476929,410.202087 512.210144,416.330231 
	C521.800415,437.832245 531.122009,459.474213 541.456604,480.617798 
	C550.043518,498.185883 559.090454,515.640137 569.427612,532.212952 
	C581.629333,551.775024 595.438965,570.334106 608.542847,589.333984 
	C608.726562,589.600464 608.798035,589.944458 608.984131,590.589600 
z"/>
<path fill="#F6E0D1" opacity="1.000000" stroke="none" 
	d="
M1709.697998,1073.306641 
	C1710.098267,1075.432129 1710.350464,1077.897217 1710.367554,1080.664307 
	C1709.938232,1078.526245 1709.744019,1076.086304 1709.697998,1073.306641 
z"/>
<path fill="#F6E0D1" opacity="1.000000" stroke="none" 
	d="
M1708.775024,1053.252197 
	C1709.110596,1054.152832 1709.319458,1055.325684 1709.306641,1056.738525 
	C1708.939453,1055.827271 1708.793945,1054.675903 1708.775024,1053.252197 
z"/>
<path fill="#FDFEFE" opacity="1.000000" stroke="none" 
	d="
M1217.501099,1077.170776 
	C1217.186279,1077.206177 1217.066772,1076.996826 1216.920654,1076.426880 
	C1217.161743,1076.352905 1217.429199,1076.639526 1217.501099,1077.170776 
z"/>
<path fill="#271D13" opacity="1.000000" stroke="none" 
	d="
M856.912903,1233.179932 
	C862.923218,1269.954102 857.542786,1304.119019 835.913330,1334.524536 
	C818.326721,1359.246826 794.726562,1374.194824 763.436707,1373.790405 
	C737.672424,1373.457397 716.916260,1361.863159 700.476318,1342.672974 
	C676.464905,1314.644775 668.336060,1281.527100 671.442749,1245.363525 
	C673.511536,1221.281494 681.578796,1199.267334 696.427124,1179.996094 
	C734.253113,1130.902954 799.384155,1132.148926 835.546143,1182.583862 
	C846.402466,1197.724854 853.300476,1214.519653 856.912903,1233.179932 
z"/>
</svg>